<?xml version="1.0" encoding="UTF-8" standalone="no"?>
<svg
   xmlns:dc="http://purl.org/dc/elements/1.1/"
   xmlns:cc="http://creativecommons.org/ns#"
   xmlns:rdf="http://www.w3.org/1999/02/22-rdf-syntax-ns#"
   xmlns:svg="http://www.w3.org/2000/svg"
   xmlns="http://www.w3.org/2000/svg"
   xmlns:sodipodi="http://sodipodi.sourceforge.net/DTD/sodipodi-0.dtd"
   xmlns:inkscape="http://www.inkscape.org/namespaces/inkscape"
   inkscape:version="1.0alpha2 (883c7bc, 2019-06-02)"
   sodipodi:docname="apollo-logo-notext-color.svg"
   id="svg118"
   version="1.1"
   width="512pt"
   viewBox="0 0 512 512"
   height="512pt">
  <metadata
     id="metadata124">
    <rdf:RDF>
      <cc:Work
         rdf:about="">
        <dc:format>image/svg+xml</dc:format>
        <dc:type
           rdf:resource="http://purl.org/dc/dcmitype/StillImage" />
        <dc:title></dc:title>
      </cc:Work>
    </rdf:RDF>
  </metadata>
  <defs
     id="defs122" />
  <sodipodi:namedview
     fit-margin-bottom="0"
     fit-margin-right="0"
     fit-margin-left="0"
     fit-margin-top="0"
     inkscape:current-layer="g130"
     inkscape:window-maximized="0"
     inkscape:window-y="0"
     inkscape:window-x="0"
     inkscape:cy="368.07102"
     inkscape:cx="877.76994"
     inkscape:zoom="0.7"
     showborder="true"
     inkscape:showpageshadow="true"
     showguides="false"
     showgrid="true"
     id="namedview120"
     inkscape:window-height="1050"
     inkscape:window-width="1680"
     inkscape:pageshadow="2"
     inkscape:pageopacity="0"
     guidetolerance="10"
     gridtolerance="10"
     objecttolerance="10"
     borderopacity="1"
     inkscape:document-rotation="0"
     bordercolor="#666666"
     pagecolor="#ffffff">
    <inkscape:grid
       originy="5.8977942e-06"
       originx="0"
       id="grid126"
       type="xygrid" />
  </sodipodi:namedview>
  <g
     transform="translate(0,2.9488972e-6)"
     style="display:none"
     inkscape:label="Text"
     id="layer1"
     inkscape:groupmode="layer">
    <text
       id="text118"
       y="336"
       x="550.5"
       style="font-style:normal;font-weight:normal;font-size:30px;font-family:sans-serif;fill:#000000;fill-opacity:1;stroke:none;stroke-width:0.75"
       xml:space="preserve"><tspan
         style="font-style:normal;font-variant:normal;font-weight:normal;font-stretch:normal;font-size:288px;font-family:'Fira Sans';-inkscape-font-specification:'Fira Sans';stroke-width:0.75"
         y="336"
         x="550.5"
         id="tspan116"
         sodipodi:role="line">Apollo</tspan></text>
  </g>
  <g
     transform="translate(0,2.9488972e-6)"
     style="display:inline"
     inkscape:label="Logo"
     id="layer2"
     inkscape:groupmode="layer">
    <g
       transform="translate(0,-2.9488972e-6)"
       id="g130">
      <path
         d="m 256,47.582031 18.02734,47.976563 c 4.1836,11.128906 18.59375,13.996096 26.71485,5.316406 l 35.01562,-37.429688 -1.70312,51.226568 c -0.39844,11.8789 11.82422,20.04296 22.64843,15.13281 L 403.375,108.625 382.19531,155.29687 c -4.91015,10.82422 3.25391,23.04688 15.13281,22.64844 l 51.22657,-1.70312 -37.42969,35.01562 c -8.67969,8.1211 -5.8125,22.53125 5.31641,26.71485 L 464.41797,256 416.44141,274.02734 c -11.12891,4.1836 -13.9961,18.59375 -5.31641,26.71485 l 37.42969,35.01562 -51.22657,-1.70312 c -11.8789,-0.39844 -20.04296,11.82422 -15.13281,22.64843 L 403.375,403.375 356.70312,382.19531 c -10.82421,-4.91015 -23.04687,3.25391 -22.64843,15.13281 l 1.70312,51.22657 -35.01562,-37.42969 c -8.1211,-8.67969 -22.53125,-5.8125 -26.71485,5.31641 L 256,464.41797 237.97266,416.44141 c -4.1836,-11.12891 -18.59375,-13.9961 -26.71485,-5.31641 l -35.01562,37.42969 1.70312,-51.22657 c 0.39844,-11.8789 -11.82422,-20.04296 -22.64844,-15.13281 L 108.625,403.375 129.80469,356.70312 c 4.91015,-10.82421 -3.25391,-23.04687 -15.13282,-22.64843 L 63.445312,335.75781 100.875,300.74219 c 8.67969,-8.1211 5.8125,-22.53125 -5.316406,-26.71485 L 47.582031,256 95.558594,237.97266 c 11.128906,-4.1836 13.996096,-18.59375 5.316406,-26.71485 l -37.429688,-35.01562 51.226558,1.70312 c 11.87891,0.39844 20.04297,-11.82422 15.13282,-22.64844 L 108.625,108.625 l 46.67187,21.17969 c 10.82422,4.91015 23.04688,-3.25391 22.64844,-15.13282 L 176.24219,63.445312 211.25781,100.875 c 8.1211,8.67969 22.53125,5.8125 26.71485,-5.316406 z m 0,0"
         fill="#ffe07d"
         id="path104"
         inkscape:connector-curvature="0" />
      <path
         d="m 384.25781,256 c 0,70.83594 -57.42187,128.25781 -128.25781,128.25781 -70.83594,0 -128.25781,-57.42187 -128.25781,-128.25781 0,-70.83594 57.42187,-128.25781 128.25781,-128.25781 70.83594,0 128.25781,57.42187 128.25781,128.25781 z m 0,0"
         fill="#fff5d7"
         id="path106"
         inkscape:connector-curvature="0" />
      <path
         d="m 360.21094,256 c 0,57.55469 -46.65625,104.21094 -104.21094,104.21094 -57.55469,0 -104.21094,-64.54297 -104.21094,-104.21094 0,-57.55469 46.65625,-104.21094 104.21094,-104.21094 57.55469,0 104.21094,46.65625 104.21094,104.21094 z m 0,0"
         fill="#ffc269"
         id="path108"
         inkscape:connector-curvature="0" />
      <path
         d="m 288.06641,328.14453 c -57.55469,0 -104.21094,-46.65625 -104.21094,-104.21094 0,-20.5625 6.03515,-39.67578 16.3164,-55.82812 -29.05468,18.49609 -48.38281,50.90234 -48.38281,87.89453 0,57.55469 46.65625,104.21094 104.21094,104.21094 36.99219,0 69.39844,-19.32813 87.89453,-48.38282 -16.15234,10.28125 -35.26562,16.31641 -55.82812,16.31641 z m 0,0"
         fill="#ffa95f"
         id="path110"
         inkscape:connector-curvature="0" />
      <path
         d="m 504.5,248.5 h -38.71875 l -46.70313,-17.54688 c -2.82031,-1.0625 -4.77734,-3.36718 -5.36718,-6.32421 -0.58985,-2.95704 0.33593,-5.83594 2.53906,-7.89454 l 37.42969,-35.01562 c 2.28125,-2.13672 3,-5.46094 1.80468,-8.34766 -1.19531,-2.88672 -4.0625,-4.72265 -7.17968,-4.625 l -51.22657,1.70703 c -3,0.10157 -5.70312,-1.28125 -7.3789,-3.78906 -1.67188,-2.50781 -1.92188,-5.51953 -0.67578,-8.26562 l 20.61719,-45.4336 27.3789,-27.378902 c 2.92578,-2.929688 2.92578,-7.675782 0,-10.605469 -2.92969,-2.929688 -7.67969,-2.929688 -10.60937,0 l -27.375,27.378911 -45.4336,20.61718 c -2.74609,1.2461 -5.75781,1 -8.26562,-0.67578 -2.50781,-1.67578 -3.88672,-4.36719 -3.78906,-7.3789 l 1.70703,-51.226568 c 0.10547,-3.121093 -1.73828,-5.980468 -4.625,-7.175781 -2.88672,-1.199219 -6.21485,-0.480469 -8.34766,1.804688 L 295.26562,95.75 c -2.05859,2.203125 -4.9375,3.125 -7.89453,2.539062 -2.95703,-0.589843 -5.26172,-2.542968 -6.32031,-5.367187 L 263.5,46.21875 V 7.5 C 263.5,3.359375 260.14062,0 256,0 c -4.14063,0 -7.5,3.359375 -7.5,7.5 v 38.71875 l -17.54688,46.703125 c -1.0625,2.824219 -3.36718,4.777344 -6.32421,5.367187 -2.95704,0.589844 -5.83594,-0.335937 -7.89454,-2.539062 L 181.71875,58.320312 c -2.13672,-2.28125 -5.46094,-3 -8.34766,-1.804687 -2.88672,1.195313 -4.73047,4.054687 -4.6289,7.179687 l 1.70703,51.226568 c 0.10156,3.01171 -1.27735,5.69921 -3.78906,7.375 -2.50391,1.67578 -5.51563,1.92187 -8.26563,0.67578 L 112.96484,102.35547 85.585938,74.980469 c -2.929688,-2.929688 -7.675782,-2.929688 -10.605469,0 -2.929688,2.929687 -2.929688,7.675781 0,10.605469 l 27.378911,27.378902 20.61328,45.4336 c 1.24609,2.74609 1,5.75781 -0.67578,8.26562 -1.67579,2.50781 -4.3711,3.88672 -7.375,3.78516 l -51.226568,-1.70313 c -3.125,-0.0977 -5.984374,1.73828 -7.179687,4.625 -1.195313,2.88672 -0.476563,6.21094 1.804687,8.34766 l 37.425782,35.01562 c 2.203125,2.0586 3.128906,4.9375 2.542968,7.89454 -0.589843,2.95703 -2.546874,5.26171 -5.367187,6.32031 L 46.21875,248.5 H 7.5 c -4.140625,0 -7.5,3.35937 -7.5,7.5 0,4.14062 3.359375,7.5 7.5,7.5 h 38.71875 l 46.703125,17.54687 c 2.820313,1.0625 4.777344,3.36719 5.367187,6.32422 0.589844,2.95703 -0.335937,5.83594 -2.539062,7.89453 l -37.429688,35.01563 c -2.28125,2.13672 -3,5.46094 -1.804687,8.34766 1.199219,2.88672 4.054687,4.72656 7.179687,4.625 l 51.226568,-1.70703 c 3.01171,-0.0937 5.70312,1.28125 7.3789,3.78906 1.67188,2.50781 1.92188,5.51953 0.67578,8.26562 l -20.61718,45.4336 -27.378911,27.3789 c -2.925781,2.92969 -2.925781,7.67578 0,10.60547 1.464843,1.46485 3.386719,2.19531 5.304687,2.19531 1.917969,0 3.839844,-0.73047 5.304688,-2.19531 l 27.374996,-27.37891 45.4336,-20.61718 c 2.74609,-1.2461 5.75781,-1 8.26562,0.67578 2.50781,1.67578 3.88672,4.36719 3.78906,7.3789 l -1.70703,51.22657 c -0.10547,3.12109 1.73828,5.98047 4.625,7.17578 2.88672,1.19531 6.21485,0.48047 8.34766,-1.80469 L 216.73437,416.25 c 2.0625,-2.20313 4.9375,-3.12891 7.89844,-2.53906 2.95703,0.58593 5.26172,2.54297 6.32031,5.36718 L 248.5,465.78125 V 504.5 c 0,4.14062 3.35937,7.5 7.5,7.5 4.14453,0 7.5,-3.35938 7.5,-7.5 v -38.71875 l 17.55078,-46.70313 c 1.0586,-2.82421 3.36328,-4.77734 6.32031,-5.36718 2.95703,-0.58985 5.83594,0.33593 7.89453,2.53906 l 35.01954,37.42969 c 2.13281,2.28125 5.46093,3 8.34765,1.80468 2.88672,-1.19531 4.72657,-4.05468 4.625,-7.17968 l -1.70703,-51.22657 c -0.10156,-3.01171 1.28125,-5.69921 3.78906,-7.375 2.50782,-1.67578 5.51954,-1.92187 8.26563,-0.67578 l 45.43359,20.61719 27.375,27.375 c 1.46485,1.46484 3.38672,2.19922 5.30469,2.19922 1.91797,0 3.83984,-0.73438 5.30078,-2.19922 2.92969,-2.92578 2.92969,-7.67578 0,-10.60547 l -27.375,-27.3789 -20.61719,-45.42969 c -1.24609,-2.7461 -1,-5.76172 0.67578,-8.26563 1.67579,-2.50781 4.375,-3.89062 7.37891,-3.78906 l 51.22656,1.70703 c 3.11719,0.0977 5.98047,-1.74219 7.17578,-4.625 1.19922,-2.89062 0.48047,-6.21484 -1.80468,-8.34765 l -37.42578,-35.01563 c -2.20313,-2.0625 -3.125,-4.94141 -2.53907,-7.89844 0.58594,-2.95703 2.54297,-5.26172 5.36719,-6.32031 l 46.70313,-17.54687 H 504.5 c 4.14062,0 7.5,-3.35938 7.5,-7.5 0,-4.14454 -3.35938,-7.50391 -7.5,-7.50391 z m -90.69531,18.50781 c -7.67188,2.88281 -13.20703,9.39844 -14.80469,17.4375 -1.59766,8.03516 1.01953,16.17578 7.00391,21.77344 l 22.85156,21.37891 -31.27735,-1.03907 c -8.1914,-0.27343 -15.79687,3.63282 -20.34765,10.44532 -4.55469,6.8125 -5.25,15.33593 -1.86328,22.79687 l 12.92968,28.49609 -28.49609,-12.92968 c -7.46094,-3.38672 -15.98437,-2.69141 -22.79687,1.86328 -6.8125,4.55078 -10.71875,12.15625 -10.44532,20.34765 l 1.03907,31.27735 -21.37891,-22.85156 c -5.59766,-5.98438 -13.73438,-8.60547 -21.77344,-7.00391 -8.03906,1.59766 -14.55469,7.13281 -17.4375,14.80078 L 256,443.09766 244.99219,413.80469 c -2.87891,-7.67188 -9.39844,-13.20703 -17.4375,-14.80469 -1.55078,-0.30859 -3.10938,-0.46094 -4.65235,-0.46094 -6.43359,0 -12.60547,2.63672 -17.12109,7.46485 l -21.37891,22.85156 1.03907,-31.27734 c 0.27343,-8.1875 -3.62891,-15.79688 -10.44532,-20.34766 -6.8125,-4.55469 -15.33593,-5.25 -22.79687,-1.86328 l -28.49609,12.92969 12.92968,-28.4961 c 3.38672,-7.46094 2.69141,-15.98437 -1.86328,-22.79687 -4.55078,-6.8125 -12.16406,-10.72657 -20.34765,-10.44532 l -31.277349,1.04297 22.851559,-21.3789 c 5.98438,-5.60157 8.60157,-13.73828 7.00391,-21.77735 -1.59766,-8.03515 -7.13281,-14.55468 -14.804688,-17.4375 L 68.902344,256 98.195312,244.99219 c 7.671878,-2.88281 13.207028,-9.39844 14.804688,-17.4375 1.59766,-8.03516 -1.01953,-16.17578 -7.00391,-21.77344 l -22.851559,-21.37891 31.277349,1.03907 c 8.1914,0.28125 15.79687,-3.63282 20.34765,-10.44532 4.55469,-6.8125 5.25,-15.33593 1.86328,-22.79687 l -12.92968,-28.49609 28.49609,12.92968 c 7.46094,3.38672 15.98437,2.69141 22.79687,-1.86328 6.8125,-4.55078 10.71875,-12.15625 10.44532,-20.34765 l -1.03907,-31.277349 21.37891,22.851559 c 5.59766,5.98438 13.73437,8.60547 21.77344,7.00391 8.03906,-1.59766 14.55468,-7.13281 17.4375,-14.800781 L 256,68.902344 267.00781,98.195312 c 2.87891,7.671878 9.39844,13.207028 17.4375,14.804688 8.03906,1.60156 16.17578,-1.01953 21.77344,-7.00391 l 21.37891,-22.851559 -1.04297,31.277349 c -0.26953,8.1875 3.63281,15.79687 10.44922,20.34765 6.8125,4.55078 15.33203,5.25 22.79687,1.86328 l 28.49609,-12.92968 -12.92968,28.49609 c -3.38672,7.46094 -2.69141,15.98437 1.86328,22.79687 4.55078,6.8125 12.14062,10.71485 20.34765,10.44532 l 31.27735,-1.04297 -22.85156,21.3789 c -5.98438,5.60157 -8.60547,13.73829 -7.00391,21.77735 1.59766,8.03515 7.13281,14.55469 14.80078,17.4375 L 443.09766,256 Z m 0,0"
         id="path112"
         inkscape:connector-curvature="0" />
      <path
         d="m 335.63281,188.55859 c -3.34375,2.44532 -4.07031,7.13672 -1.62109,10.48047 13.48437,18.42969 20.01562,41.17578 18.38281,64.05078 -1.65234,23.11328 -11.59766,44.88282 -28.01172,61.29297 -16.41015,16.41406 -38.17968,26.35938 -61.29297,28.01172 -22.86718,1.63281 -45.62109,-4.89453 -64.05078,-18.38281 -3.34375,-2.44531 -8.03515,-1.72266 -10.48047,1.62109 -2.44531,3.34375 -1.71875,8.03516 1.6211,10.48047 19.14844,14.01563 42.32031,21.52734 66.0039,21.52734 2.65235,0 5.3125,-0.0937 7.97657,-0.28515 26.71093,-1.91016 51.86718,-13.40235 70.83203,-32.36719 18.96094,-18.96094 30.45703,-44.11719 32.36328,-70.83203 1.88672,-26.41016 -5.65625,-52.68359 -21.23828,-73.97656 -2.44922,-3.33985 -7.14063,-4.07032 -10.48438,-1.6211 z m 0,0"
         id="path114"
         inkscape:connector-curvature="0" />
      <path
         d="m 187.61719,187.61719 c 16.41015,-16.41407 38.17968,-26.35938 61.29297,-28.01172 22.87109,-1.63281 45.62109,4.89453 64.05078,18.38281 3.33984,2.44531 8.03515,1.72266 10.48047,-1.62109 2.44531,-3.34375 1.71875,-8.03516 -1.6211,-10.48047 -21.29297,-15.58594 -47.5625,-23.12891 -73.98047,-21.24219 -26.71093,1.91016 -51.86718,13.40234 -70.83203,32.36719 -18.96094,18.96094 -30.45703,44.11719 -32.36328,70.83203 -1.88672,26.41016 5.65625,52.68359 21.23828,73.97656 1.46875,2.00781 3.75,3.07031 6.0586,3.07031 1.53515,0 3.08593,-0.46875 4.42187,-1.44921 3.34375,-2.44532 4.07031,-7.13672 1.625,-10.48047 -13.48828,-18.42969 -20.01562,-41.17578 -18.38281,-64.05078 1.65234,-23.11329 11.59765,-44.88282 28.01172,-61.29297 z m 0,0"
         id="path116"
         inkscape:connector-curvature="0" />
    </g>
  </g>
</svg>
